<svg xmlns="http://www.w3.org/2000/svg" width="106" height="106" viewBox="0 0 106 106">
  <g id="Grupo_24" data-name="Grupo 24" transform="translate(-961.429 -535.429)">
    <path id="Trazado_14" data-name="Trazado 14" d="M100.132,50.066A50.066,50.066,0,1,1,50.066,0a50.066,50.066,0,0,1,50.066,50.066" transform="translate(964.363 538.363)" fill="#1e1f23"/>
    <path id="Trazado_15" data-name="Trazado 15" d="M53.752,98.067A44.314,44.314,0,1,1,98.067,53.752,44.364,44.364,0,0,1,53.752,98.067m0-86.444A42.13,42.13,0,1,0,95.882,53.752,42.177,42.177,0,0,0,53.752,11.623" transform="translate(960.677 534.677)" fill="#fff"/>
    <path id="Trazado_16" data-name="Trazado 16" d="M54.932,55.286l.049-5.224q.014-1.438.027-2.874a.486.486,0,0,1,.069-.3c.121-.156.366-.108.553-.043,1.223.423,2.421.909,3.6,1.441,1.78.8,3.519,1.7,5.236,2.637a4.635,4.635,0,0,1,1.885,1.516,4.7,4.7,0,0,1,.5,2.043q.247,2.842.5,5.687a3.62,3.62,0,0,1-.161,1.849,3.116,3.116,0,0,1-2.459,1.449,7.725,7.725,0,0,0-2.867.7c-.433.265-.9.669-1.379.5a1.313,1.313,0,0,1-.387-.246,4.96,4.96,0,0,1-.551-.493,5.53,5.53,0,0,1-.775-1.252,13.371,13.371,0,0,0-2.387-3.476,7.572,7.572,0,0,0-.792-.688c-.14-.106-.284-.206-.432-.3s-.248-.119-.248-.319c0-.871.016-1.742.025-2.613" transform="translate(959.01 533.308)" fill="#fff"/>
    <path id="Trazado_17" data-name="Trazado 17" d="M39.781,63.266c.04-.286.08-.573.12-.859q.12-.86.241-1.719.475-3.4.952-6.8a4.127,4.127,0,0,1,.646-2,4.135,4.135,0,0,1,1.736-1.12L48.1,48.786l4.973-2.122q-.02,5.521-.041,11.044a6.607,6.607,0,0,0-4.516.641,9.623,9.623,0,0,0-3.407,3.113,5.942,5.942,0,0,1-1.114,1.372,4.856,4.856,0,0,1-.679.419c-.328.178-.658.356-1,.5-.413.179-2.424.925-2.634.317a2.357,2.357,0,0,1,.1-.807" transform="translate(959.569 533.312)" fill="#fff"/>
    <path id="Trazado_18" data-name="Trazado 18" d="M63.248,78.615a5.718,5.718,0,0,0-3.883-.218,10.724,10.724,0,0,1-3.924.428c-1.532-.258-2.869-1.32-4.419-1.413s-3,.807-4.545,1.023c-2.363.33-4.69-.958-7.073-.844-1.283.061-2.525.527-3.809.555a22.168,22.168,0,0,1-3.8-.579,4.6,4.6,0,0,0-3.665.69s-1.319-1.18-1.407-1.333c-.278-.479.424-1.144.721-1.469,1.418-1.55,3.028-3.2,5.117-3.422a12.417,12.417,0,0,0,1.469-.131,4,4,0,0,0,2.307-1.893c.549-.86.948-1.816,1.564-2.629.809-1.066,1.408-1.151,2.7-1.487a14.678,14.678,0,0,0,3.128-1.42c1.1-.644,1.818-2.013,2.851-2.758a7.578,7.578,0,0,1,2.949-2.03,5.143,5.143,0,0,1,4.478,1.2c1.784,1.43,2.323,4.137,3.928,5.765a10.774,10.774,0,0,1,2.209,2.315c.557,1.077.394,2.368.571,3.568a6.3,6.3,0,0,0,2.91,4.4c.523.328.523.626.188.977a2.679,2.679,0,0,0-.57.715" transform="translate(960.045 532.839)" fill="#fff"/>
    <path id="Trazado_19" data-name="Trazado 19" d="M75.085,77.065c-1.675-.4-3.39-.979-5.084-.663a16.875,16.875,0,0,1-2.6.586,3.222,3.222,0,0,1-2.54-1.215c-.308-.382-.457-.843-.727-1.24a3.468,3.468,0,0,1-.513-1.636c-.062-.659-.024-1.324-.094-1.982a4.264,4.264,0,0,0-.539-1.746c-.191-.32-.436-.606-.606-.938s-.671-.8-.643-1.17c.042-.545,1-1.086,1.617-1.154a10.09,10.09,0,0,0,4.783-1.828c.918-.7,2.125-.235,3.072.424a3.912,3.912,0,0,1,1.29,1.861c.21.539.377,1.1.611,1.627a5.537,5.537,0,0,0,.252.5,23.4,23.4,0,0,0,2.4,2.769c.662.818,1.134,1.772,1.741,2.631a20.168,20.168,0,0,0,2.6,2.83c-1.439.948-3.335.747-5.01.343" transform="translate(958.759 532.686)" fill="#fff"/>
    <path id="Trazado_20" data-name="Trazado 20" d="M36.382,46.3a4.7,4.7,0,0,0-1.439-2.538,28.353,28.353,0,0,0-3.29-2.776.536.536,0,0,0-.314-.138h0c-.336,0-.407.44-.432.585a2.92,2.92,0,0,1-.728,1.491c-.077.083-.159.162-.241.241a2.86,2.86,0,0,0-.5.575.936.936,0,0,0,.05,1.132.917.917,0,0,0,1.08.041,2.641,2.641,0,0,0,.623-.583c.043-.05.087-.1.131-.15a.382.382,0,0,1,.181-.136c.092-.017.2.065.289.143l1.9,1.646c.382.331.789.724.768,1.2a1.062,1.062,0,0,1-.966.9,2.676,2.676,0,0,1-1.461-.346,19.183,19.183,0,0,1-3.868-2.727,20.634,20.634,0,0,1-2.235-2.064,2.523,2.523,0,0,1-.775-1.578,1.128,1.128,0,0,1,.434-.859.71.71,0,0,1,.62-.148,1.525,1.525,0,0,1,.546.338,1.565,1.565,0,0,0,.681.388c.584.11,1.092-.42,1.316-.959a1.4,1.4,0,0,0,.1-.978,1.465,1.465,0,0,0-1.158-.865,3.664,3.664,0,0,0-4.407,4.286,5.587,5.587,0,0,0,1.72,2.819l.422.42c1.5,1.492,3.2,3.184,5.23,3.919a5.639,5.639,0,0,0,1.914.349,4.76,4.76,0,0,0,.816-.069,4.056,4.056,0,0,0,1.091-.351,3.318,3.318,0,0,0,1.9-3.207" transform="translate(960.171 533.628)" fill="#fff"/>
    <path id="Trazado_21" data-name="Trazado 21" d="M42.51,39.506a7.133,7.133,0,0,0-.961-2.816,22.347,22.347,0,0,0-2.467-3.666A5.632,5.632,0,0,0,35.5,30.682a3.245,3.245,0,0,0-2.378.858,3.453,3.453,0,0,0-1.166,2.269,5.954,5.954,0,0,0,.643,2.812c.7,1.584,3.221,6.761,6.39,6.881l.112,0A3.234,3.234,0,0,0,40.8,43a3.835,3.835,0,0,0,1.708-3.489m-1.626,1.073a1.281,1.281,0,0,1-.326.892h0a1.15,1.15,0,0,1-1.046.241,1.627,1.627,0,0,1-.17-.046A5.741,5.741,0,0,1,36.9,39.393c-.11-.149-.217-.3-.322-.434-.724-.956-1.449-1.993-2.35-3.367a3.085,3.085,0,0,1-.723-2.078,1.469,1.469,0,0,1,.725-1.006,1.567,1.567,0,0,1,.8-.229,1.294,1.294,0,0,1,.431.071,3.166,3.166,0,0,1,1.316,1.165,38.42,38.42,0,0,1,3.467,5.027,4.188,4.188,0,0,1,.644,2.037" transform="translate(959.852 533.898)" fill="#fff"/>
    <path id="Trazado_22" data-name="Trazado 22" d="M50.134,31.812a11.737,11.737,0,0,0-1.327-3.237A5.1,5.1,0,0,0,46.1,26.388a6.807,6.807,0,0,0-3.822.243c-.328.1-.716.256-.8.623a1.03,1.03,0,0,0,.058.529c.748,2.5,1.532,5.047,2.331,7.584q.6,1.893,1.2,3.781c.049.155.084.28.114.392a2.717,2.717,0,0,0,.408.93c.012.017.031.047.122.047a1.952,1.952,0,0,0,.549-.128l.258-.085a7.273,7.273,0,0,0,1.06-.4,5.531,5.531,0,0,0,2.657-2.705,8.322,8.322,0,0,0-.1-5.383m-3.286,6.782a.637.637,0,0,0-.032-.1,8.523,8.523,0,0,1-.387-1.145c-.043-.154-.085-.3-.125-.426q-.481-1.513-.961-3.028-.944-2.978-1.88-5.961a.276.276,0,0,1-.02-.17c.023-.053.114-.08.189-.1a4.061,4.061,0,0,1,.9-.114,2.146,2.146,0,0,1,.746.122,2.494,2.494,0,0,1,1.221,1.086,7.64,7.64,0,0,1,.653,1.58l.933,2.846a15.663,15.663,0,0,1,.7,2.632,2.591,2.591,0,0,1-.12,1.458,2.917,2.917,0,0,1-1.243,1.14,2.117,2.117,0,0,1-.385.145c-.066.021-.125.039-.171.058l-.008-.027" transform="translate(959.503 534.062)" fill="#fff"/>
    <path id="Trazado_23" data-name="Trazado 23" d="M56.489,29.5a4.678,4.678,0,0,0-.951-1.276,1.353,1.353,0,0,1-.463-.715.455.455,0,0,1,.184-.393.229.229,0,0,1,.236-.035.538.538,0,0,1,.086.055c.024.017.048.035.073.049a.614.614,0,0,0,.536.037.743.743,0,0,0,.443-.451.95.95,0,0,0-.379-1.021,1.652,1.652,0,0,0-1.049-.267,5.232,5.232,0,0,0-.754.113c-.092.018-.184.037-.276.053l-.031.006a1.161,1.161,0,0,0-.507.175,1.145,1.145,0,0,0-.286.364,4.325,4.325,0,0,0-.407.838,2.278,2.278,0,0,0,.676,2.373c.089.076.183.144.278.213a3.292,3.292,0,0,1,.316.248.841.841,0,0,1,.3.573.437.437,0,0,1-.134.305.278.278,0,0,1-.212.087.677.677,0,0,1-.268-.1.943.943,0,0,0-.311-.125.557.557,0,0,0-.419.114.72.72,0,0,0-.279.478c-.078.615.308,1.044,1.061,1.179a2.632,2.632,0,0,0,.457.039,2.316,2.316,0,0,0,.248-.013,2.239,2.239,0,0,0,1.951-1.316,2.111,2.111,0,0,0-.12-1.584" transform="translate(959.085 534.089)" fill="#fff"/>
    <path id="Trazado_24" data-name="Trazado 24" d="M56.093,33.185a1.835,1.835,0,0,0-.591-.05h-.076c-.212,0-.429,0-.644-.01a4.7,4.7,0,0,0-1.76.167.46.46,0,0,0-.225.146.363.363,0,0,0-.044.385,1.345,1.345,0,0,0,.895.561,2.943,2.943,0,0,0,.471-.011c.081-.006.163-.013.244-.014a5.215,5.215,0,0,1,.66.038l.153.015c.126.012.277.023.43.025h.022a1.247,1.247,0,0,0,.617-.132.631.631,0,0,0,.34-.6.66.66,0,0,0-.491-.523" transform="translate(959.09 533.809)" fill="#fff"/>
    <path id="Trazado_25" data-name="Trazado 25" d="M65.675,35.2c-.029-.063-.053-.12-.076-.176a2.719,2.719,0,0,0-.29-.559,2.258,2.258,0,0,1-.244-.567,3.964,3.964,0,0,0-.148-.4.667.667,0,0,0-.044-.077c-.014-.021-.038-.057-.044-.05a.586.586,0,0,1,.222-.2l.009-.006a3.965,3.965,0,0,0,1.63-3.867,2.811,2.811,0,0,0-.76-1.6,3.475,3.475,0,0,0-1.483-.74,24.357,24.357,0,0,0-2.471-.52,2.5,2.5,0,0,0-.669-.048c-.131.015-.25.223-.266.29l-.011.043a1.66,1.66,0,0,1-.118.363c-.105.257-.576,2.833-1.119,5.815-.371,2.031-.754,4.131-1.055,5.675-.016.087-.04.171-.06.246-.056.2-.113.415.066.475a3.57,3.57,0,0,0,.677.146l1.614.2a11.087,11.087,0,0,0,1.275.106h.03a3.461,3.461,0,0,0,1.378-.248,3.607,3.607,0,0,0,1.839-2.453,1.379,1.379,0,0,1,.085-.241,1.3,1.3,0,0,0,.1-.3,5.42,5.42,0,0,0,.022-1,1.116,1.116,0,0,0-.083-.311m-2.641-2.79a4.253,4.253,0,0,1-.762-.036,3.161,3.161,0,0,1-.4-.085.431.431,0,0,0,.016-.067c.034-.207.107-.633.144-.843.009-.051.03-.179.058-.359.114-.706.38-2.36.537-2.959.012-.043.021-.084.03-.119l.014-.063c.03,0,.06.01.09.015a1.546,1.546,0,0,0,.18.024,4.371,4.371,0,0,1,.99.135,1.467,1.467,0,0,1,.968.749,2.109,2.109,0,0,1,.091,1.063,4.7,4.7,0,0,1-.3,1.365,1.949,1.949,0,0,1-.879,1,1.83,1.83,0,0,1-.774.178m.277,5.118a1.819,1.819,0,0,1-.891.568,2.569,2.569,0,0,1-1.465-.032.7.7,0,0,0-.092-.035.406.406,0,0,1-.044-.015.3.3,0,0,1,.04-.147,1.057,1.057,0,0,0,.077-.256q.056-.4.12-.79c.167-1.019.372-2.041.61-3.041.61.1,1.221.22,1.818.364a.921.921,0,0,1,.395.223c.039.2.1.744.109.788a3.982,3.982,0,0,1-.436,2.068l-.1.134c-.044.058-.089.117-.137.171M65,33.071Z" transform="translate(958.873 534.056)" fill="#fff"/>
    <path id="Trazado_26" data-name="Trazado 26" d="M77.78,33.866a1.221,1.221,0,0,0-.054-.183L77.7,33.61a2.569,2.569,0,0,0-.194-.391,4.465,4.465,0,0,1-.242-.486,3.632,3.632,0,0,0-3.434-2.183A4.8,4.8,0,0,0,70.823,32a14.668,14.668,0,0,0-1.867,2.375l-.4.588a13.913,13.913,0,0,0-1.8,3.191,4.223,4.223,0,0,0,3.26,5.909c.078.011.158.019.237.025s.167.009.248.009c.1,0,.2,0,.29-.013a2.96,2.96,0,0,0,1.038-.291,5.443,5.443,0,0,0,1.715-1.526,35.824,35.824,0,0,0,2.824-3.94c.9-1.462,1.693-2.9,1.417-4.462m-2,.86a5.229,5.229,0,0,1-.561.994,40.162,40.162,0,0,1-3.836,5.143,3.594,3.594,0,0,1-1.285.988,1.568,1.568,0,0,1-.731.089,1.285,1.285,0,0,1-.3-.076.965.965,0,0,1-.406-.269c-.023-.039-.115-.294-.124-.324-.007-.057-.017-.114-.027-.171a1.6,1.6,0,0,1-.034-.3,5.233,5.233,0,0,1,.892-2.52l.1-.146a4.842,4.842,0,0,0,.358-.606.969.969,0,0,1,.082-.137l.063-.1a.945.945,0,0,1,.1-.139,8.218,8.218,0,0,0,.522-.661l1.993-2.713a4.3,4.3,0,0,1,.99-1.069,1.61,1.61,0,0,1,.866-.282,1.058,1.058,0,0,1,.452.1,1.679,1.679,0,0,1,.477.373,1.929,1.929,0,0,1,.492.75,1.68,1.68,0,0,1-.077,1.074" transform="translate(958.588 533.903)" fill="#fff"/>
    <path id="Trazado_27" data-name="Trazado 27" d="M88.157,41.82a.363.363,0,0,0-.307-.305c-.293-.042-.3-.052-.438-.218l-.078-.092c-.015-.018-.043-.062-.076-.111a1.69,1.69,0,0,0-.2-.268c-.11-.1-.271-.029-.4.03a.748.748,0,0,1-.106.043c-.463.118-.932.25-1.392.395-.174.055-.349.112-.522.169-.22.072-.44.145-.662.213a19.555,19.555,0,0,1-2.876.65l1.12-2.772a15.194,15.194,0,0,1,1.217-2.546.512.512,0,0,0,.1-.259c0-.226-.233-.355-.323-.4l-.749-.407c-.059-.032-.251-.1-.565-.208l-.11-.038a.212.212,0,0,0-.175,0,.225.225,0,0,0-.1.173.457.457,0,0,1-.032.114c-.1.213-.357.967-.567,1.574-.115.33-.213.617-.236.672a7.294,7.294,0,0,0-.258.743,7.536,7.536,0,0,1-.249.723c-.442,1.036-.9,2.107-1.42,3.129a.831.831,0,0,1-.119.191.893.893,0,0,1-.388.2l-5.034,1.609a2.431,2.431,0,0,0-.525.216c-.178.111-.171.207-.133.27a4.22,4.22,0,0,0,.818.863l.19.168c.052.048.188.156.3.134a6.1,6.1,0,0,0,.712-.2c.126-.04.25-.081.376-.114.471-.126.951-.261,1.431-.4.416-.117.831-.234,1.242-.345a20.212,20.212,0,0,1-1.161,2.99,1.06,1.06,0,0,1-.091.135c-.111.149-.235.32-.143.462a1.635,1.635,0,0,0,.117.151l.044.053a7.557,7.557,0,0,0,.982.959.934.934,0,0,0,.125.09.962.962,0,0,1,.109.074.5.5,0,0,0,.247.108.131.131,0,0,0,.066-.016.8.8,0,0,0,.256-.353c.042-.127.1-.3.165-.512.191-.6.452-1.422.691-2.041.1-.259.2-.521.3-.782.2-.526.4-1.069.612-1.564a1.509,1.509,0,0,1,.146-.287.486.486,0,0,1,.251-.116c.036-.01.069-.018.1-.029,1.762-.569,3.58-1.064,5.339-1.542l1.31-.356a3,3,0,0,0,.831-.379.642.642,0,0,0,.235-.645" transform="translate(958.363 533.715)" fill="#fff"/>
    <rect id="Rectángulo_8" data-name="Rectángulo 8" width="106" height="106" transform="translate(961.429 535.429)" fill="none"/>
  </g>
</svg>
