<svg id="Layer_1" data-name="Layer 1" xmlns="http://www.w3.org/2000/svg" viewBox="0 0 500 250"><defs><style>.cls-1{fill:#34b4c9;}.cls-2{fill:#373737;}</style></defs><title>Artboard 1</title><path class="cls-1" d="M100.53,77.72a45.69,45.69,0,0,0-42.95,30.1h85.91A45.72,45.72,0,0,0,100.53,77.72Z"/><path class="cls-1" d="M100.53,169.09a45.73,45.73,0,0,0,43-30.11H57.58A45.72,45.72,0,0,0,100.53,169.09Z"/><circle class="cls-1" cx="57.58" cy="123.4" r="15.58"/><path class="cls-2" d="M221.92,130.09H202.23c-8.36,0-11.94,3.5-11.94,11.48V160.8c0,8.06,3.57,11.48,11.94,11.48h19.69c8,0,11.33-3.2,11.33-10.8v-3.87c0-1.07-.53-1.6-1.67-1.6h-10.8c-1.13,0-1.67.53-1.67,1.6h.08v.92c0,1.36-.84,2.05-2.28,2.05h-7c-4.26,0-4.86-.69-4.86-4.18V146c0-3.57.61-4.19,4.86-4.19h6.91c1.45,0,2.28.69,2.28,2.06v.92c0,1.06.53,1.59,1.67,1.59h10.8c1.14,0,1.67-.53,1.67-1.59v-3.88C233.25,133.28,229.83,130.09,221.92,130.09Z"/><path class="cls-2" d="M251.26,130.09H240c-1.14,0-1.67.53-1.67,1.6v38.92c0,1.06.53,1.6,1.67,1.6h11.25c1.14,0,1.67-.54,1.67-1.6V131.7C252.94,130.62,252.4,130.09,251.26,130.09Z"/><path class="cls-2" d="M286.69,130.09h-1.75c-7.45,0-11.25,2.81-12.39,8.59v-7c0-1.07-.53-1.6-1.67-1.6H261.3c-1.14,0-1.67.52-1.67,1.6v38.91c0,1.06.53,1.6,1.67,1.6h11.25c1.14,0,1.67-.54,1.67-1.6V150.69c0-5.24,3-8.89,9.13-8.89h3.34c1.14,0,1.67-.53,1.67-1.6v-8.5C288.36,130.62,287.83,130.09,286.69,130.09Z"/><path class="cls-2" d="M323.78,130.09H304.09c-8.36,0-11.94,3.5-11.94,11.48V160.8c0,8.06,3.57,11.48,11.94,11.48h19.69c8,0,11.33-3.2,11.33-10.8v-3.87c0-1.07-.53-1.6-1.67-1.6h-10.8c-1.14,0-1.67.53-1.67,1.6h.08v.92c0,1.36-.84,2.05-2.28,2.05h-7c-4.25,0-4.86-.69-4.86-4.18V146c0-3.57.61-4.19,4.86-4.19h6.92c1.44,0,2.28.69,2.28,2.06v.92c0,1.06.53,1.59,1.67,1.59h10.79c1.14,0,1.67-.53,1.67-1.59v-3.88C335.11,133.28,331.69,130.09,323.78,130.09Z"/><path class="cls-2" d="M382,130.09H370.76c-1.14,0-1.67.53-1.67,1.6v23.64c0,3.5-1.67,5.25-5.78,5.25h-3.12c-4.18,0-4.86-.68-4.86-4.18h.07V131.61c0-1.06-.53-1.6-1.67-1.6H342.48a1.47,1.47,0,0,0-1.66,1.24,1.45,1.45,0,0,0,0,.36v29.12c0,8.05,3.65,11.47,12,11.47h6.38c6.77,0,10.34-2.66,11.56-8v6.39c0,1.06.53,1.59,1.67,1.59H382a1.47,1.47,0,0,0,1.67-1.23,1.45,1.45,0,0,0,0-.36V131.7a1.46,1.46,0,0,0-1.29-1.62A1.61,1.61,0,0,0,382,130.09Z"/><path class="cls-2" d="M402.69,130.09H391.43c-1.14,0-1.67.53-1.67,1.6v38.92c0,1.06.53,1.6,1.67,1.6h11.26c1.13,0,1.67-.54,1.67-1.6V131.7C404.36,130.62,403.82,130.09,402.69,130.09Z"/><path class="cls-2" d="M441.15,130.09H409.83a1.48,1.48,0,0,0-1.67,1.24,1.45,1.45,0,0,0,0,.36v8.51a1.46,1.46,0,0,0,1.67,1.6h7.9v19c0,8.05,3.65,11.47,12,11.47h11.4c1.14,0,1.67-.53,1.67-1.6v-8.51c0-1.06-.53-1.6-1.67-1.6h-6.31c-1.67,0-2.5-.76-2.5-2.35V141.8h8.81c1.14,0,1.67-.53,1.67-1.6v-8.51C442.83,130.62,442.29,130.09,441.15,130.09Z"/><path class="cls-2" d="M203.37,125.61c8.37,0,11.94-3.5,11.94-11.48V94.9c0-8.06-3.57-11.48-12-11.48h-7.68c-6.76,0-10.41,2.74-11.55,8.06V85c0-1.06-.52-1.6-1.67-1.6h-9.58c-1.14,0-1.67.53-1.67,1.6v49.1c0,1.07.53,1.6,1.67,1.6h11.25c1.14,0,1.67-.53,1.67-1.6V120.21c1.67,3.57,5.09,5.4,10.64,5.4ZM191.59,114c-4.18,0-5.85-1.82-5.85-5.25v-8.35c0-3.5,1.67-5.25,5.85-5.25h4.26c4.25,0,4.86.69,4.86,4.19v10.41c0,3.5-.6,4.11-4.86,4.26Z"/><path class="cls-2" d="M232.41,125.53H252c8,0,11.33-3.2,11.33-10.8v-2.65c0-1.07-.53-1.6-1.67-1.6h-10.8c-1.14,0-1.67.53-1.67,1.6v.3c0,1.14-.53,1.6-1.67,1.6H240c-4.26,0-4.86-.68-4.86-4.18v-2h26.6c1.14,0,1.67-.52,1.67-1.6v-12c0-7.61-3.42-10.8-11.32-10.8h-19.7c-8.36,0-11.93,3.5-11.93,11.48v19.15C220.48,122.11,224.05,125.53,232.41,125.53ZM235,99.15c0-3.57.61-4.18,4.87-4.18h6.77c1.44,0,2.28.69,2.28,2v4.11H235Z"/><path class="cls-2" d="M271,125.53H282.2c1.14,0,1.67-.54,1.67-1.6V104c0-5.25,3-8.9,9.13-8.9h3.34c1.14,0,1.67-.52,1.67-1.59V85c0-1.07-.53-1.6-1.67-1.6H294.6c-7.45,0-11.25,2.81-12.39,8.59V85c0-1.07-.53-1.6-1.67-1.6H271c-1.13,0-1.67.52-1.67,1.6v38.92C269.28,125,269.81,125.53,271,125.53Z"/><path class="cls-2" d="M292.46,103.94v8.52c0,1.06.54,1.6,1.68,1.6h8.36v10c0,1.06.52,1.59,1.67,1.59h11.25c1.14,0,1.67-.53,1.67-1.59v-10h9.65c1.14,0,1.67-.54,1.67-1.6v-8.52c0-1.06-.53-1.59-1.67-1.59h-9.57v-3c0-3.57.6-4.19,4.94-4.19h4.63c1.14,0,1.67-.52,1.67-1.59V85c0-1.07-.53-1.6-1.67-1.6H315.27c-8.37,0-12.77,4.25-12.77,12.24v6.69h-8.36C293,102.35,292.46,102.88,292.46,103.94Z"/><path class="cls-2" d="M365.28,125.53c8,0,11.33-3.2,11.33-10.8v-2.65c0-1.07-.52-1.6-1.67-1.6H364.15c-1.14,0-1.67.53-1.67,1.6v.3c0,1.14-.53,1.6-1.67,1.6h-7.53c-4.26,0-4.87-.68-4.87-4.18v-2H375c1.14,0,1.67-.52,1.67-1.6v-12c0-7.61-3.42-10.8-11.32-10.8h-19.7c-8.36,0-11.93,3.5-11.93,11.48v19.15c0,8.06,3.57,11.48,11.93,11.48ZM348.33,99.15c0-3.57.61-4.18,4.87-4.18H360c1.44,0,2.27.68,2.27,2v4.1H348.33Z"/><path class="cls-2" d="M413,125.53c8,0,11.33-3.2,11.33-10.8v-3.87c0-1.06-.52-1.6-1.67-1.6H411.89c-1.14,0-1.67.53-1.67,1.6v1c0,1.37-.84,2.05-2.28,2.05h-7c-4.26,0-4.87-.68-4.87-4.18V99.31c0-3.57.61-4.19,4.87-4.19h7c1.44,0,2.28.69,2.28,2.06v.91c0,1.06.52,1.59,1.67,1.59h10.79c1.14,0,1.67-.53,1.67-1.59V94.22c0-7.61-3.42-10.8-11.33-10.8H393.33c-8.36,0-11.93,3.5-11.93,11.48v19.15c0,8.06,3.57,11.48,11.93,11.48Z"/><path class="cls-2" d="M460.46,95.12c1.14,0,1.67-.52,1.67-1.59V85c0-1.07-.53-1.6-1.67-1.6H429.14a1.48,1.48,0,0,0-1.67,1.24,1.45,1.45,0,0,0,0,.36v8.51a1.47,1.47,0,0,0,1.31,1.61,2.17,2.17,0,0,0,.36,0h7.91v19c0,8.06,3.65,11.48,12,11.48h11.4c1.14,0,1.67-.53,1.67-1.6V115.5c0-1.06-.52-1.6-1.67-1.6h-6.32c-1.67,0-2.5-.76-2.5-2.35V95.12Z"/></svg>