<svg id="Layer_1" data-name="Layer 1" xmlns="http://www.w3.org/2000/svg" viewBox="0 0 500 250"><defs><style>.cls-1{fill:blue;}</style></defs><title>signal-sounds</title><path class="cls-1" d="M144.73,74.69A8.92,8.92,0,0,0,141,67a8.92,8.92,0,0,0-4-1.88,15.3,15.3,0,0,0-4.68-.7,26.21,26.21,0,0,0-4.21.47,11.81,11.81,0,0,0-3.51,1.64A13.36,13.36,0,0,0,122,69.07a6.63,6.63,0,0,0-.94,3.51v.47A6.89,6.89,0,0,0,122,76.8a6.74,6.74,0,0,0,2.58,2.57A12.12,12.12,0,0,0,129,81.25c2.11.46,4.22.93,6.09,1.17a23.16,23.16,0,0,1,12.17,4.91,13.65,13.65,0,0,1,4,9.6v.93a17.63,17.63,0,0,1-1.17,6.09,13.94,13.94,0,0,1-3.28,4.92,16.91,16.91,0,0,1-5.62,3.27,29.08,29.08,0,0,1-7.72,1.17,23,23,0,0,1-8.89-1.63,23.55,23.55,0,0,1-6.56-4,18.38,18.38,0,0,1-4-6.09,16.43,16.43,0,0,1-1.17-7.49V91.78h6.32v1.87A13.39,13.39,0,0,0,123,104.18a15.88,15.88,0,0,0,10.53,3.52,13.31,13.31,0,0,0,8.89-2.58,9.19,9.19,0,0,0,3.05-6.79V97.4a6.76,6.76,0,0,0-3.05-6.32,24.19,24.19,0,0,0-9.83-3,40.22,40.22,0,0,1-7.25-1.63,23.83,23.83,0,0,1-5.39-2.81,15.47,15.47,0,0,1-3.51-4.22,9,9,0,0,1-1.4-5.85v-.94A16.1,16.1,0,0,1,116.17,67a13.71,13.71,0,0,1,9.13-7.26,24.23,24.23,0,0,1,7-.94,29.85,29.85,0,0,1,8,1.17,15.22,15.22,0,0,1,5.85,3.52,11.49,11.49,0,0,1,3.75,4.91,13.55,13.55,0,0,1,1.17,6.09v3h-6.32Z"/><path class="cls-1" d="M161.58,59.48h33.47v5.85H181.48v41h13.57v5.85H161.58v-5.85h13.58v-41H161.58Z"/><path class="cls-1" d="M219.4,86.86h23.4v25.28H237v-6.32H236a11.4,11.4,0,0,1-4.45,5.39,14.57,14.57,0,0,1-7.49,2.1,16.73,16.73,0,0,1-13.35-5.61q-4.9-5.62-4.91-16.16V79.84a23.08,23.08,0,0,1,4.91-15.92,17.54,17.54,0,0,1,13.58-5.61,22.69,22.69,0,0,1,8,1.4,20,20,0,0,1,5.85,4,17.79,17.79,0,0,1,3.51,6.09,20,20,0,0,1,1.17,7.49v1.4h-6.32v-.94a17.76,17.76,0,0,0-.7-4.91,11.82,11.82,0,0,0-2.11-4.21,8.74,8.74,0,0,0-3.74-2.81,14.94,14.94,0,0,0-5.62-1.17,10.31,10.31,0,0,0-9.13,4.44,20.5,20.5,0,0,0-3,11.71V91.54a19.48,19.48,0,0,0,3,11.94,11.13,11.13,0,0,0,9.37,4.22,11.63,11.63,0,0,0,8.89-3.52,14.51,14.51,0,0,0,3.28-10.06v-.94H219.4Z"/><path class="cls-1" d="M280.72,109.57h.94V59.48H288v52.66H275.34L260.12,62.29h-.93v50.09h-6.32V59.48h12.64Z"/><path class="cls-1" d="M327.77,99.27h-22.7l-3.75,13.11h-6.79l15.92-52.67h11.94l15.92,52.67h-6.79Zm-11.7-37-9.13,30.89h19.19L317,62.29Z"/><path class="cls-1" d="M346,59.48h6.32v46.81H380v5.85H346Z"/><path class="cls-1" d="M144.73,140.23a9.48,9.48,0,0,0-.94-4.44,12.06,12.06,0,0,0-2.81-3.28,8.79,8.79,0,0,0-4-1.87,15,15,0,0,0-4.68-.71,26.21,26.21,0,0,0-4.21.47A12.07,12.07,0,0,0,124.6,132a8.14,8.14,0,0,0-2.35,2.57,6.67,6.67,0,0,0-.93,3.52v.46a10.58,10.58,0,0,0,.7,3.75,8,8,0,0,0,2.81,2.81,25.51,25.51,0,0,0,4.45,1.87c2.1.47,4.21.94,6.08,1.17a23.25,23.25,0,0,1,12.17,4.92,13.61,13.61,0,0,1,4,9.59v.94a19.85,19.85,0,0,1-1.17,6.32,12,12,0,0,1-3.51,4.92,13.26,13.26,0,0,1-5.62,3,29.49,29.49,0,0,1-7.72,1.17,23,23,0,0,1-8.89-1.64,19.63,19.63,0,0,1-6.56-4.21,18.38,18.38,0,0,1-4-6.09,16.41,16.41,0,0,1-1.17-7.49v-2.34h6.32v1.87a14.08,14.08,0,0,0,3.75,10.3A15.87,15.87,0,0,0,133.49,173a13.25,13.25,0,0,0,8.89-2.57,9.2,9.2,0,0,0,3.05-6.79v-.7a6.76,6.76,0,0,0-3.05-6.32,21.14,21.14,0,0,0-9.83-3.05,40.22,40.22,0,0,1-7.25-1.63,23.83,23.83,0,0,1-5.39-2.81,15.47,15.47,0,0,1-3.51-4.22,12.55,12.55,0,0,1-1.17-5.85v-.93a15.1,15.1,0,0,1,1.17-5.62,13.07,13.07,0,0,1,3.28-4.68,13.23,13.23,0,0,1,5.38-2.81,24.25,24.25,0,0,1,7-.94,29.78,29.78,0,0,1,7.95,1.17,17.79,17.79,0,0,1,6.09,3.51,14.1,14.1,0,0,1,3.75,5.15,13.58,13.58,0,0,1,1.17,6.09v3h-6.32Z"/><path class="cls-1" d="M159.71,145.62a23.08,23.08,0,0,1,4.91-15.92,19.21,19.21,0,0,1,27.15,0,24,24,0,0,1,5.15,15.92v11.7c0,7-1.63,12.41-4.91,15.92a18,18,0,0,1-13.81,5.61,17.52,17.52,0,0,1-13.58-5.61c-3.27-3.75-4.91-8.9-4.91-15.92ZM178.2,173a10.82,10.82,0,0,0,9.36-4.21,21.09,21.09,0,0,0,3-11.94V146.08a31.11,31.11,0,0,0-.7-6.55,14.7,14.7,0,0,0-2.34-5.15,10.11,10.11,0,0,0-3.74-3.28,12,12,0,0,0-10.54,0,10.11,10.11,0,0,0-3.74,3.28,14.7,14.7,0,0,0-2.34,5.15,31.12,31.12,0,0,0-.71,6.55v10.77a19.49,19.49,0,0,0,3,11.94A9.34,9.34,0,0,0,178.2,173Zm-4.68-21.53a4.79,4.79,0,1,1,1.4,3.51A5.65,5.65,0,0,1,173.52,151.47Z"/><path class="cls-1" d="M212.61,125v34.87a13.85,13.85,0,0,0,3,9.6,11,11,0,0,0,8.66,3.28,11.47,11.47,0,0,0,8.9-3.28,14.33,14.33,0,0,0,3-9.6V125h6.32v34.87a17.06,17.06,0,0,1-18.26,19A17.9,17.9,0,0,1,211,173.94a19.25,19.25,0,0,1-4.92-14.05V125Z"/><path class="cls-1" d="M280.72,175.11h.94V125H288v52.66H275.34l-15.22-49.85h-.93v49.85h-6.32V125h12.64Z"/><path class="cls-1" d="M299,125H316.3c6.56,0,11.24,1.64,14.28,4.68s4.45,8.19,4.45,15v13.58c0,6.78-1.41,11.7-4.45,15-3,3-7.72,4.68-14.28,4.68H299v-5.85h4.45v-41.2H299Zm16.39,46.81a26.83,26.83,0,0,0,6.08-.7,9.39,9.39,0,0,0,4.22-2.34,10.82,10.82,0,0,0,2.34-4.21,22.76,22.76,0,0,0,.7-6.79V145.15a32.36,32.36,0,0,0-.7-6.79,8.77,8.77,0,0,0-6.56-6.55,25.39,25.39,0,0,0-6.08-.71h-5.62v41h5.62Z"/><path class="cls-1" d="M353.76,135.79A5.23,5.23,0,0,0,356.1,140a20.16,20.16,0,0,0,8.42,1.87,19.54,19.54,0,0,1,10.07,3,9.56,9.56,0,0,1,3.51,7.49v.47a12.64,12.64,0,0,1-1.17,4.92,9.38,9.38,0,0,1-3,3.74,12.54,12.54,0,0,1-4.69,2.34,24.41,24.41,0,0,1-13.57-.46,14.34,14.34,0,0,1-5.15-3,11.71,11.71,0,0,1-3.05-4.44,12.64,12.64,0,0,1-1.17-4.92l5.62-1.4a10.09,10.09,0,0,0,11,9.36,12.43,12.43,0,0,0,6.56-1.64,5,5,0,0,0,2.57-4.45,4.38,4.38,0,0,0-2.57-4.44,19.29,19.29,0,0,0-8-1.64,18,18,0,0,1-9.83-3,8.31,8.31,0,0,1-3.51-7.49v-.46a9.31,9.31,0,0,1,4.21-8,17.84,17.84,0,0,1,4.21-2.11,18.21,18.21,0,0,1,5.15-.7,21.24,21.24,0,0,1,6.56.93,18.62,18.62,0,0,1,4.68,2.58,11.31,11.31,0,0,1,2.81,3.74,14.85,14.85,0,0,1,1.4,4.22l-5.62,1.4a8.71,8.71,0,0,0-2.8-5.62,11,11,0,0,0-6.56-2.1,13.43,13.43,0,0,0-3,.47,8.3,8.3,0,0,0-2.58.93,6.41,6.41,0,0,0-1.87,1.64A3.53,3.53,0,0,0,353.76,135.79Z"/></svg>